# xmcd
#
# Track frame offsets:
# 150
# 16930
# 31458
# 46167
# 60701
# 73097
# 89610
# 103280
# 118278
# 133018
# 147511
# 161056
# 173790
# 191930
# 210129
# 223782
# 239999
# 256098
# 277825
# 290723
# 310113
#
# Disc length: 4308 seconds
#
#
# Revision: 0
# Processed by: cddbd v1.5.2PL0 Copyright (c) Steve Scherf et al.
# Submitted via: FreeRIP 2.951 
#
DISCID=4d10d215
DTITLE=Victor and Marcell - Acústico Ao Vivo
DYEAR=2011
DGENRE=Sertanejo
TTITLE0=Poder Chorar
TTITLE1=Ciumento Demias
TTITLE2=Pra Sempre Vou Te Amar
TTITLE3=Risca Faca
TTITLE4=Vucu-vuco
TTITLE5=Cicatriz
TTITLE6=Morri Pra Você
TTITLE7=Dengo
TTITLE8=Separados
TTITLE9=A PIcada - Peão Não Chora
TTITLE10=Ainda Ontem Chorei de Saudade Part. Os Meninos de Goiás
TTITLE11=Roupa de Lua Mel
TTITLE12=Pé de Cedro - Vida Porque Te Quero
TTITLE13=Amor a Três
TTITLE14=24 Horas de Amor - De Igual Pra Igual
TTITLE15=Tempo Ao Tempo - Assino Com X
TTITLE16=Bsusa Vermelha - Telefone Mudo - Boate Azul
TTITLE17=Olhos Azuis
TTITLE18=Na Hora do Adeus
TTITLE19=Cantei a Cunhada
TTITLE20=Encerramento
EXTD=
EXTT0=
EXTT1=
EXTT2=
EXTT3=
EXTT4=
EXTT5=
EXTT6=
EXTT7=
EXTT8=
EXTT9=
EXTT10=
EXTT11=
EXTT12=
EXTT13=
EXTT14=
EXTT15=
EXTT16=
EXTT17=
EXTT18=
EXTT19=
EXTT20=
PLAYORDER=
